<svg version="1.1" viewBox="0.0 0.0 512.0 512.0" fill="none" stroke="none" stroke-linecap="square" stroke-miterlimit="10" xmlns:xlink="http://www.w3.org/1999/xlink" xmlns="http://www.w3.org/2000/svg"><clipPath id="p.0"><path d="m0 0l512.0 0l0 512.0l-512.0 0l0 -512.0z" clip-rule="nonzero"/></clipPath><g clip-path="url(#p.0)"><path fill="#000000" fill-opacity="0.0" d="m0 0l512.0 0l0 512.0l-512.0 0z" fill-rule="evenodd"/><path fill="#ffffff" d="m72.03412 256.0l0 0c0 -101.35077 82.16104 -183.51181 183.51181 -183.51181l0 0c48.67035 0 95.34732 19.33422 129.76245 53.749367c34.41513 34.41514 53.74936 81.09208 53.74936 129.76245l0 0c0 101.35077 -82.16104 183.51181 -183.51181 183.51181l0 0c-101.35077 0 -183.51181 -82.16104 -183.51181 -183.51181z" fill-rule="evenodd"/><path stroke="#000000" stroke-width="8.0" stroke-linejoin="round" stroke-linecap="butt" d="m72.03412 256.0l0 0c0 -101.35077 82.16104 -183.51181 183.51181 -183.51181l0 0c48.67035 0 95.34732 19.33422 129.76245 53.749367c34.41513 34.41514 53.74936 81.09208 53.74936 129.76245l0 0c0 101.35077 -82.16104 183.51181 -183.51181 183.51181l0 0c-101.35077 0 -183.51181 -82.16104 -183.51181 -183.51181z" fill-rule="evenodd"/><path fill="#ff0000" d="m72.04029 254.49557l0 0c0.82658386 -100.82483 82.8428 -182.09814 183.67096 -182.00731c100.82817 0.09082794 182.6978 81.511795 183.34273 182.33794l-183.50806 1.1737976z" fill-rule="evenodd"/><path stroke="#000000" stroke-width="8.0" stroke-linejoin="round" stroke-linecap="butt" d="m72.04029 254.49557l0 0c0.82658386 -100.82483 82.8428 -182.09814 183.67096 -182.00731c100.82817 0.09082794 182.6978 81.511795 183.34273 182.33794l-183.50806 1.1737976z" fill-rule="evenodd"/><path fill="#000000" d="m71.25984 241.16536l369.4803 0l0 28.724411l-369.4803 0z" fill-rule="evenodd"/><path stroke="#000000" stroke-width="1.0" stroke-linejoin="round" stroke-linecap="butt" d="m71.25984 241.16536l369.4803 0l0 28.724411l-369.4803 0z" fill-rule="evenodd"/><path fill="#000000" d="m210.31758 255.52756l0 0c0 -25.85736 20.24942 -46.818893 45.228348 -46.818893l0 0c11.9953 0 23.499298 4.9326935 31.981262 13.712936c8.481964 8.780243 13.247101 20.688812 13.247101 33.105957l0 0c0 25.85736 -20.24942 46.81891 -45.228363 46.81891l0 0c-24.978928 0 -45.228348 -20.961548 -45.228348 -46.81891z" fill-rule="evenodd"/><path stroke="#000000" stroke-width="1.0" stroke-linejoin="round" stroke-linecap="butt" d="m210.31758 255.52756l0 0c0 -25.85736 20.24942 -46.818893 45.228348 -46.818893l0 0c11.9953 0 23.499298 4.9326935 31.981262 13.712936c8.481964 8.780243 13.247101 20.688812 13.247101 33.105957l0 0c0 25.85736 -20.24942 46.81891 -45.228363 46.81891l0 0c-24.978928 0 -45.228348 -20.961548 -45.228348 -46.81891z" fill-rule="evenodd"/><path fill="#ffffff" d="m231.15224 256.0l0 0c0 -14.13327 10.9214325 -25.590546 24.393692 -25.590546l0 0c6.4696045 0 12.674255 2.6961365 17.248962 7.4953003c4.574707 4.7991486 7.144745 11.308212 7.144745 18.095245l0 0c0 14.13327 -10.921448 25.590546 -24.393707 25.590546l0 0c-13.4722595 0 -24.393692 -11.457275 -24.393692 -25.590546z" fill-rule="evenodd"/><path stroke="#ffffff" stroke-width="1.0" stroke-linejoin="round" stroke-linecap="butt" d="m231.15224 256.0l0 0c0 -14.13327 10.9214325 -25.590546 24.393692 -25.590546l0 0c6.4696045 0 12.674255 2.6961365 17.248962 7.4953003c4.574707 4.7991486 7.144745 11.308212 7.144745 18.095245l0 0c0 14.13327 -10.921448 25.590546 -24.393707 25.590546l0 0c-13.4722595 0 -24.393692 -11.457275 -24.393692 -25.590546z" fill-rule="evenodd"/></g></svg>